<svg xmlns="http://www.w3.org/2000/svg" xml:space="preserve" baseProfile="tiny" overflow="visible" viewBox="0 0 24 24"><g fill="none"><path d="M0 0h24v24H0z"/><path d="M0 0h24v24H0z"/></g><path d="M5.5 4a1.5 1.5 0 1 1-3 0 1.5 1.5 0 0 1 3 0M20 5.5a1.5 1.5 0 1 0 0-3 1.5 1.5 0 0 0 0 3m-8-3a1.5 1.5 0 1 0 0 3 1.5 1.5 0 0 0 0-3m-8 16a1.5 1.5 0 1 0 0 3 1.5 1.5 0 0 0 0-3m16 0a1.5 1.5 0 1 0 0 3 1.5 1.5 0 0 0 0-3m-8 0a1.5 1.5 0 1 0 0 3 1.5 1.5 0 0 0 0-3m-8-8a1.5 1.5 0 1 0 0 3 1.5 1.5 0 0 0 0-3m16 0a1.5 1.5 0 1 0 0 3 1.5 1.5 0 0 0 0-3m-8 0a1.5 1.5 0 1 0 0 3 1.5 1.5 0 0 0 0-3"/></svg>