<svg xmlns="http://www.w3.org/2000/svg" xml:space="preserve" baseProfile="tiny" overflow="visible" viewBox="0 0 24 24"><path fill="none" d="M0 0h24v24H0z"/><path d="M10.124 17.52a7.3 7.3 0 0 0 1.497-4.435c0-1.609-.517-3.141-1.497-4.433l-1.539 1.18a5.37 5.37 0 0 1 1.11 3.253 5.37 5.37 0 0 1-1.11 3.255zM7.214 15.29c.47-.657.718-1.418.718-2.205s-.248-1.548-.718-2.203L5.69 12.048a1.86 1.86 0 0 1 0 2.076z"/><path d="M16.612 4.105a7.25 7.25 0 0 0-5.534-1.71c-3.073.439-5.602 2.954-6.03 5.988l1.927.29c.327-2.22 2.167-4.047 4.395-4.352 1.57-.203 2.982.218 4.095 1.23 1.026 1.026 1.637 2.479 1.637 3.888 0 1.595-.672 3.014-1.844 3.893-1.158.965-2.001 2.468-2.311 4.123-.17.686-.42 1.105-.93 1.55-.478.434-1.004.62-1.755.62a2.46 2.46 0 0 1-1.731-.891L6.99 19.986c.855.945 1.854 1.472 2.971 1.565h.402c.919 0 1.926-.348 2.91-1.006.792-.534 1.39-1.543 1.6-2.702.204-1.218.8-2.337 1.639-3.07 1.623-1.32 2.516-3.213 2.516-5.334 0-1.955-.88-3.9-2.416-5.334"/></svg>