<svg xmlns="http://www.w3.org/2000/svg" xml:space="preserve" baseProfile="tiny" overflow="visible" viewBox="0 0 24 24"><path fill="none" d="M0 0h24v24H0z"/><path d="M18 14.05c-.784 0-1.541.231-2.193.67L5.603 2.008l-.686 2.145 5.872 7.334-2.594 3.234A3.9 3.9 0 0 0 6 14.05c-2.178 0-3.95 1.771-3.95 3.95S3.822 21.95 6 21.95 9.95 20.18 9.95 18c0-.629-.16-1.247-.475-1.839L12 13.001l2.525 3.158A3.9 3.9 0 0 0 14.05 18c0 2.179 1.772 3.95 3.95 3.95s3.95-1.771 3.95-3.95-1.772-3.95-3.95-3.95m-12 6c-1.13 0-2.05-.92-2.05-2.05s.92-2.05 2.05-2.05 2.05.92 2.05 2.05-.92 2.05-2.05 2.05m12 0c-1.13 0-2.05-.92-2.05-2.05s.92-2.05 2.05-2.05 2.05.92 2.05 2.05-.92 2.05-2.05 2.05M14.582 9.776l-1.21-1.507.024-.032 5.009-6.235.686 2.146z"/></svg>