<svg xmlns="http://www.w3.org/2000/svg" xml:space="preserve" baseProfile="tiny" overflow="visible" viewBox="0 0 24 24"><path fill="none" d="M0 0h24v24H0z"/><path d="M21.261 8.236a9.989 9.989 0 0 1-3.706 12.077l-1.11-1.662A7.99 7.99 0 0 0 20 12c0-.995-.188-1.944-.52-2.822l-1.791.947c.195.59.311 1.218.311 1.875a6 6 0 0 1-2.667 4.988l-1.111-1.663A4 4 0 0 0 16 12c0-.319-.041-.627-.112-.924l-1.896 1.002A1.996 1.996 0 0 1 12 14c-.39 0-.751-.116-1.059-.31l-1.896 1.003q.328.36.733.632l-1.111 1.663a6 6 0 0 1-1.422-1.344l-1.792.947a8 8 0 0 0 2.103 2.06l-1.111 1.663a10 10 0 0 1-2.762-2.788l-.866.458-.934-1.768.856-.452A9.988 9.988 0 0 1 6.445 3.687l1.11 1.662A7.99 7.99 0 0 0 4 12c0 .995.188 1.944.52 2.822l1.791-.947A6 6 0 0 1 6 12a6 6 0 0 1 2.667-4.988l1.111 1.663A4 4 0 0 0 8 12c0 .319.041.627.112.924l1.896-1.002A1.996 1.996 0 0 1 12 10c.39 0 .751.116 1.059.31l1.897-1.003a4 4 0 0 0-.734-.632l1.111-1.663a6 6 0 0 1 1.422 1.344l1.792-.947a8 8 0 0 0-2.103-2.06l1.112-1.663a10 10 0 0 1 2.76 2.788l.867-.458.934 1.768z"/></svg>