<svg xmlns="http://www.w3.org/2000/svg" xml:space="preserve" baseProfile="tiny" overflow="visible" viewBox="0 0 24 24"><path fill="none" d="M0 0h24v24H0z"/><path d="m7.771 17.97 2.208 3.047H8.347l-1.424-2.005-1.416 2.005H3.91l2.22-3.081-2.11-2.925h1.572l1.399 1.958 1.416-1.958h1.547zm4.723-2.96h-1.352v6.007h3.933v-1.06h-2.58zm7.271 3.014a2.7 2.7 0 0 0-.406-.252q-.217-.108-.882-.383-.669-.276-.846-.413c-.177-.137-.175-.22-.175-.38q0-.28.208-.462.198-.17.58-.17.334 0 .642.072.307.073.917.297l.272-1.102q-1.035-.326-1.916-.326-1.221 0-1.754.75a1.87 1.87 0 0 0-.348 1.123q0 .741.53 1.136.185.14.409.25c.224.11.403.186.764.335q.734.301.92.445a.48.48 0 0 1 .187.403.68.68 0 0 1-.19.487q-.222.228-.687.228-.717 0-1.746-.431l-.196 1.152a6 6 0 0 0 2.013.34q1.009 0 1.568-.42.658-.496.658-1.462 0-.819-.522-1.217M6 4h8.17L18 7.83V13h2V7l-5-5H4v11h2z"/></svg>