<svg xmlns="http://www.w3.org/2000/svg" xml:space="preserve" baseProfile="tiny" overflow="visible" viewBox="0 0 24 24"><path fill="none" d="M0 0h24v24H0z"/><path fill-rule="evenodd" d="M6 13H4V2h11l5 5v6h-2V7.83L14.17 4H6zm15 5.67v.972h-.81v1.364h-1.308v-1.364H16v-1.06L18.602 15h1.589v3.67zm-2.085-2.406L17.25 18.67h1.665zM6.742 18.247q-.153.47-.352 1.212a26 26 0 0 0-.347-1.212L5.005 15H3v6.006h1.25v-4.862q.208.776.36 1.247l1.17 3.615h1.161l1.204-3.717q.187-.568.33-1.145v4.862h1.302V15H7.794zm8.452-2.425q.268.437.268 1.022 0 .953-.636 1.462a1.7 1.7 0 0 1-.668.316 4.4 4.4 0 0 1-1.011.095h-.567v2.29h-1.353V15h1.692q.864 0 1.318.114.627.162.957.708m-1.085 1.07q0-.506-.351-.718-.258-.157-.823-.156h-.39V17.7h.39q.564 0 .81-.119.364-.178.364-.69"/></svg>