<svg xmlns="http://www.w3.org/2000/svg" xml:space="preserve" baseProfile="tiny" overflow="visible" viewBox="0 0 24 24"><path fill="none" d="M0 0h24v24H0z"/><path d="M14.998 2h-11v11h2V4h8.171l3.829 3.828V13h2V7zM9.299 15.964v-.955H4.784v1.058h2.822L4.68 20.062v.955h4.723v-1.06h-3.03zM18.6 15.4c-.399-.304-.842-.391-1.892-.391h-1.693v6.008h1.354v-2.292h.565c.833 0 1.31-.122 1.684-.409.409-.33.634-.85.634-1.459 0-.625-.234-1.145-.651-1.458m-1.068 2.187c-.199.104-.346.122-.807.122h-.39v-1.685h.39c.443 0 .617.035.825.157.217.138.348.4.348.72 0 .33-.131.574-.366.686M11.258 15.009h1.354v6.008h-1.354z"/></svg>