<svg xmlns="http://www.w3.org/2000/svg" xml:space="preserve" baseProfile="tiny" overflow="visible" viewBox="0 0 24 24"><path fill="none" d="M0 0h24v24H0z"/><path d="M7.56 15.39c-.399-.303-.84-.39-1.89-.39H3.98v6h1.352v-2.29h.563c.833 0 1.31-.12 1.683-.407.407-.329.633-.849.633-1.457 0-.624-.234-1.144-.65-1.457m-1.067 2.185c-.199.104-.346.122-.806.122h-.39v-1.683h.39c.442 0 .616.035.824.156.217.14.347.399.347.72 0 .33-.13.572-.365.685M11.071 15H9.406v6h1.57c1.197 0 1.812-.121 2.35-.45.746-.469 1.145-1.345 1.145-2.55 0-1.006-.287-1.787-.833-2.289-.564-.521-1.257-.711-2.567-.711m1.318 4.639c-.303.208-.746.303-1.37.303h-.26v-3.885h.26c.841 0 1.17.087 1.5.382.347.304.555.893.555 1.544 0 .762-.251 1.369-.685 1.656M15.925 15h4.073v1.057h-2.72v1.37h2.72v1.059h-2.72V21h-1.353zm4.073-8v6h-2V7.828L14.169 4H5.998v9h-2V2h11z"/></svg>