<svg xmlns="http://www.w3.org/2000/svg" xml:space="preserve" baseProfile="tiny" overflow="visible" viewBox="0 0 24 24"><path fill="none" d="M0 0h24v24H0z"/><path d="M12 2C6.477 2 2 6.477 2 12s4.477 10 10 10 10-4.477 10-10S17.523 2 12 2m7.93 9h-2.97c-.204-2.896-1.258-5.066-2.283-6.53A8.01 8.01 0 0 1 19.931 11M12 19.653c-.941-.956-2.672-3.16-2.959-6.653h5.918c-.287 3.493-2.018 5.697-2.959 6.653M9.041 11c.287-3.494 2.02-5.699 2.959-6.653.94.955 2.672 3.16 2.959 6.653zm.282-6.53C8.298 5.935 7.244 8.105 7.04 11H4.069a8.01 8.01 0 0 1 5.254-6.53M4.069 13h2.972c.203 2.896 1.257 5.066 2.282 6.53A8.01 8.01 0 0 1 4.069 13m10.608 6.53c1.025-1.464 2.079-3.634 2.282-6.53h2.972a8.01 8.01 0 0 1-5.254 6.53"/></svg>