<svg xmlns="http://www.w3.org/2000/svg" xml:space="preserve" baseProfile="tiny" overflow="visible" viewBox="0 0 24 24"><path fill="none" d="M0 0h24v24H0z"/><path d="M18.573 6.908c-.7-2.002-2.152-3.507-3.988-4.129a8.18 8.18 0 0 0-5.176 0c-1.834.622-3.287 2.127-3.986 4.13-.723 2.066-.522 4.28.56 5.961l6.015 8.504 6.039-8.54c1.057-1.645 1.259-3.86.536-5.926m-2.193 4.808-4.382 6.195-4.358-6.16c-.715-1.112-.842-2.716-.33-4.183.495-1.417 1.494-2.472 2.74-2.894.623-.21 1.278-.317 1.948-.317s1.325.107 1.946.317c1.247.422 2.246 1.477 2.741 2.894.513 1.467.386 3.07-.305 4.148M12 6.357c-1.654 0-3 1.346-3 3s1.346 3 3 3 3-1.345 3-3-1.346-3-3-3m-.002 4.25a1.25 1.25 0 1 1 .001-2.501 1.25 1.25 0 0 1-.001 2.501"/></svg>