<svg xmlns="http://www.w3.org/2000/svg" xml:space="preserve" baseProfile="tiny" overflow="visible" viewBox="0 0 24 24"><path fill="none" d="M0 0h24v24H0z"/><path d="M21.621 7.2a2.51 2.51 0 0 0-1.768-1.78C18.293 5 12.04 5 12.04 5s-6.254 0-7.814.42A2.51 2.51 0 0 0 2.457 7.2c-.418 1.57-.418 4.845-.418 4.845s0 3.276.418 4.846c.23.866.908 1.548 1.768 1.78 1.56.42 7.814.42 7.814.42s6.254 0 7.814-.42a2.51 2.51 0 0 0 1.768-1.78c.418-1.57.418-4.846.418-4.846s0-3.275-.418-4.845M9.994 15.02V9.071l5.227 2.974z"/></svg>