<svg id="Icon" xmlns="http://www.w3.org/2000/svg" viewBox="0 0 512 512"><defs><style>.cls-1{stroke-width:0}</style></defs><path class="cls-1" d="M436 400H76c-6.63 0-12-5.37-12-12V124c0-6.63 5.37-12 12-12h360c6.63 0 12 5.37 12 12v264c0 6.63-5.37 12-12 12ZM88 376h336V136H88v240Z"/><path class="cls-1" d="M366.53 332.91H255.94c-6.63 0-12-5.37-12-12s5.37-12 12-12h110.59c6.63 0 12 5.37 12 12s-5.37 12-12 12ZM366.53 217.83H255.94c-6.63 0-12-5.37-12-12s5.37-12 12-12h110.59c6.63 0 12 5.37 12 12s-5.37 12-12 12ZM315.53 256.83h-59.59c-6.63 0-12-5.37-12-12s5.37-12 12-12h59.59c6.63 0 12 5.37 12 12s-5.37 12-12 12ZM167.18 340.17l-9.39-11.79c-1.36-1.71-33.39-42.17-43.42-74.77a56.05 56.05 0 0 1-3.11-16.47c-.03-.7-.05-1.4-.05-2.09 0-30.86 25.11-55.97 55.97-55.97s55.97 25.11 55.97 55.97c0 .7-.02 1.41-.05 2.12a55.593 55.593 0 0 1-3.11 16.44c-10.03 32.6-42.06 73.06-43.42 74.77l-9.39 11.79Zm0-137.08c-17.63 0-31.97 14.34-31.97 31.97 0 .34.01.68.03 1.02v.14c.12 3.31.74 6.54 1.83 9.6l.18.54c5.54 18.22 20.17 40.68 29.93 54.43 9.77-13.75 24.39-36.21 29.93-54.43l.18-.55a31.71 31.71 0 0 0 1.82-9.59v-.24c.03-.31.04-.63.04-.93 0-17.63-14.34-31.97-31.97-31.97Z"/><path class="cls-1" d="M167.18 249.9c-8.19 0-14.83-6.64-14.83-14.84s6.64-14.83 14.83-14.83 14.84 6.64 14.84 14.83-6.64 14.84-14.84 14.84Z"/></svg>