<svg xmlns="http://www.w3.org/2000/svg" viewBox="0 0 512 512"><path d="M213.54 227.39h-60.91V88h204.9v139.39h-64.61v14.39c6.46 1.47 12.33 4.07 16.92 8.68h71.68V64h-251v186.46h83.06Z"/><path d="M279.35 243.91v-33.33a25.61 25.61 0 1 0-51.21 0v69.1l-27.38 27.78a9.88 9.88 0 0 0-2.86 7.36v71.51a11.8 11.8 0 0 0 2.86 7.36l27.79 27.78v16.35a10.22 10.22 0 1 0 20.43 0v-20.44a11.75 11.75 0 0 0-2.86-7.36l-27.79-27.78v-63.35l10.22-10.21v47a10.22 10.22 0 1 0 20.43 0v-145.6a5.32 5.32 0 0 1 10.63 0V314.4a10.22 10.22 0 1 0 20.43 0v-40.86a5.41 5.41 0 0 1 5.31-5.31c2.86 0 5.31 2.45 5.31 2.47v40.87c0 8.56 4.5 13.05 10.22 13.05a10.12 10.12 0 0 0 10.22-10.22v-25.33a5.31 5.31 0 1 1 10.62 0v25.74a10.22 10.22 0 1 0 20.43 0V304.6a5.32 5.32 0 1 1 10.63 0v80.09l-9.81 29a9 9 0 0 0-.41 3.27v20.44a10.22 10.22 0 0 0 20.43 0v-18.8l9.81-29a9 9 0 0 0 .41-3.27V304.6c-1.64-14.3-13.49-25.75-27.38-25.75a40.17 40.17 0 0 0-6.95.82 25.85 25.85 0 0 0-23.7-16.35 40.17 40.17 0 0 0-6.95.82 26.36 26.36 0 0 0-29-15.94Z"/></svg>