<svg xmlns="http://www.w3.org/2000/svg" viewBox="0 0 512 512"><path d="M399.53 146.43c-30.82-12.54-68.43-20.81-108.76-23.92-6.6-.51-12.38 4.43-12.89 11.04-.51 6.61 4.43 12.38 11.04 12.89 37.89 2.93 73.01 10.61 101.56 22.22 4.28 1.74 11.47 5.68 11.42 12.44-.1 14.74-1.25 36.82-6.14 58.27-1.75 7.67-4.28 14.64-7.22 21.03a263.28 263.28 0 0 0-15.59-6.14c-6.24-2.23-13.11 1.03-15.33 7.27-2.23 6.24 1.03 13.11 7.27 15.33 3.99 1.42 7.89 2.94 11.68 4.53-2.5 3.73-4.99 7.21-7.34 10.5-1.45 2.03-2.84 3.98-4.16 5.87-64.77 37.43-161.42 37.31-222.04-.42-4.38-4.54-7.69-9.28-10.75-15.11 4.43-1.93 9.04-3.77 13.75-5.48 6.23-2.25 9.46-9.13 7.21-15.36s-9.13-9.46-15.36-7.21c-5.12 1.85-10.13 3.84-14.96 5.95-1.26-3.36-2.6-7.01-4.05-10.98-1.19-3.23-2.45-6.66-3.8-10.31-.93-5.12-1.74-10.52-2.42-16.07-.8-6.58-6.78-11.26-13.37-10.46-6.58.8-11.26 6.79-10.46 13.36.78 6.4 1.73 12.64 2.83 18.55.12.68.31 1.34.55 1.99 1.48 3.99 2.85 7.71 4.13 11.21 10.17 27.71 15.77 42.97 30.64 57.82.62.62 1.31 1.17 2.05 1.64 33.34 21.17 77.35 32.83 123.93 32.83s91.46-11.6 126.66-32.66c1.51-.9 2.8-2.13 3.79-3.59 1.58-2.34 3.41-4.91 5.35-7.62 10.2-14.28 24.18-33.85 30.4-61.14 5.37-23.56 6.63-47.5 6.74-63.44.1-15.05-9.76-28.07-26.38-34.83Z"/><path d="M229.95 235.94c-14.41.91-28.64 2.62-42.3 5.08-6.52 1.18-10.86 7.42-9.68 13.94 1.04 5.8 6.1 9.87 11.8 9.87.71 0 1.42-.06 2.14-.19 12.76-2.3 26.07-3.9 39.56-4.75 6.61-.42 11.64-6.12 11.22-12.73s-6.12-11.64-12.73-11.22ZM279.38 259.97c13.46.89 26.78 2.51 39.58 4.83.72.13 1.44.19 2.15.19 5.69 0 10.75-4.07 11.79-9.87 1.18-6.52-3.15-12.77-9.67-13.94-13.69-2.48-27.91-4.21-42.27-5.16-6.61-.44-12.33 4.57-12.76 11.18-.44 6.61 4.57 12.33 11.18 12.76ZM96.48 185.85c.63.43 1.29.8 1.99 1.11 18.36 8.05 41.79 12.07 65.49 12.07s47.42-3.99 66.75-11.97c1.5-.62 2.86-1.54 4-2.7.79-.81 1.67-1.66 2.61-2.57 5.53-5.34 13.89-13.42 17.75-25.11 3.13-9.48 3.86-19 3.93-25.32.09-9.3-6.83-16.81-18.51-20.09-43.5-12.21-108.07-12.22-150.2-.02-11.53 3.34-18.37 10.82-18.29 20.01.05 6.09.64 15.33 3.18 24.77.24.89.58 1.75 1.02 2.57.76 1.41 1.46 2.72 2.11 3.95 5.45 10.24 9.04 17.01 18.16 23.29Zm.49-51.55c37.75-10.94 97.94-10.91 137.04.07.32.09.62.18.88.27-.25 4.24-.93 9.47-2.6 14.51-2.01 6.08-7.12 11.02-11.64 15.38-.42.41-.84.81-1.24 1.2-32.41 12.54-79.99 12.45-110.18-.27-3.49-2.63-5.1-5.48-9.72-14.17-.47-.88-.96-1.8-1.48-2.77-1.22-4.98-1.74-9.93-1.93-13.94.26-.09.55-.18.87-.28ZM255.94 402.5h.04c21.07 0 40.96-7.06 56-19.86 5.05-4.29 5.66-11.87 1.37-16.92-4.29-5.05-11.87-5.66-16.92-1.37-22.3 18.97-58.62 18.99-80.88.09-.03-.03-.12-.1-.15-.13-5.06-4.26-12.59-3.6-16.87 1.45-4.27 5.05-3.62 12.64 1.43 16.92 15.05 12.77 34.93 19.8 55.98 19.8Z"/><path d="M328.36 395.44c-39.9 35.94-104.82 35.94-144.73 0-4.92-4.43-12.51-4.04-16.95.88-4.44 4.92-4.04 12.51.88 16.95 23.68 21.33 55.09 33.08 88.43 33.08s64.74-11.75 88.43-33.08c4.92-4.44 5.32-12.02.88-16.95-4.43-4.92-12.02-5.32-16.95-.88Z"/></svg>