<svg xmlns="http://www.w3.org/2000/svg" viewBox="0 0 512 512"><circle cx="256" cy="242.15" r="27.69"/><path d="M436 160.92h-15.69v-9.26c0-17.83-14.5-32.33-32.33-32.33h-.87c-17.83 0-32.33 14.5-32.33 32.33v9.2l-197.54.11v-8.91c0-17.83-14.5-32.33-32.33-32.33h-.87c-17.83 0-32.33 14.5-32.33 32.33v8.85H76.02c-6.63 0-12 5.37-12 12s5.37 12 12 12h15.69v9.57c0 17.83 14.5 32.33 32.33 32.33h.87c17.83 0 32.33-14.5 32.33-32.33v-9.51l197.54-.11v9.21c0 17.83 14.5 32.33 32.33 32.33h.87c17.83 0 32.33-14.5 32.33-32.33v-9.16H436c6.63 0 12-5.37 12-12s-5.37-12-12-12Zm-302.77 33.56c0 4.52-3.82 8.33-8.33 8.33h-.87c-4.52 0-8.33-3.82-8.33-8.33v-42.41c0-4.52 3.82-8.33 8.33-8.33h.87c4.52 0 8.33 3.82 8.33 8.33v42.41Zm263.08-.4c0 4.52-3.82 8.33-8.33 8.33h-.87c-4.52 0-8.33-3.82-8.33-8.33v-42.41c0-4.52 3.82-8.33 8.33-8.33h.87c4.52 0 8.33 3.82 8.33 8.33v42.41Z"/><path d="M340.93 216.45c-6.55-1.02-12.68 3.46-13.71 10l-8.09 51.76c-2.85 3.06-8.37 8.97-17.46 18.62-5.8-6.92-14.3-11.3-23.76-11.3H234.1c-9.46 0-17.96 4.38-23.76 11.3-9.1-9.66-14.61-15.56-17.46-18.62l-8.09-51.76c-1.02-6.55-7.16-11.03-13.71-10s-11.03 7.16-10 13.71l8.65 55.38c.37 2.35 1.42 4.53 3.03 6.28.27.29 6.87 7.45 25.75 27.46 1.15 1.22 2.51 2.15 3.96 2.77v58.56c0 6.63 5.37 12 12 12s12-5.37 12-12v-61.94c0-4.95 3.5-9.14 7.63-9.14h43.81c4.14 0 7.63 4.18 7.63 9.14v61.94c0 6.63 5.37 12 12 12s12-5.37 12-12v-58.56c1.45-.63 2.8-1.55 3.96-2.77 18.88-20.01 25.48-27.16 25.75-27.46 1.61-1.75 2.67-3.93 3.03-6.28l8.65-55.38c1.02-6.55-3.46-12.69-10-13.71Z"/></svg>