<svg xmlns="http://www.w3.org/2000/svg" viewBox="0 0 512 512"><path d="M368 113h-36V93c0-6.63-5.37-12-12-12s-12 5.37-12 12v20H204V93c0-6.63-5.37-12-12-12s-12 5.37-12 12v20h-36c-24.26 0-44 19.74-44 44v224c0 24.26 19.74 44 44 44h224c24.26 0 44-19.74 44-44V157c0-24.26-19.74-44-44-44Zm20 268c0 11.03-8.97 20-20 20H144c-11.03 0-20-8.97-20-20V157c0-11.03 8.97-20 20-20h36v20c0 6.63 5.37 12 12 12s12-5.37 12-12v-20h104v20c0 6.63 5.37 12 12 12s12-5.37 12-12v-20h36c11.03 0 20 8.97 20 20v224Z"/><path d="M208.02 221.92c-14.81 0-25.74 6.01-32.48 17.88-5.1 9.05-7.69 22.38-7.69 39.62 0 19.63 3.25 34.42 9.66 43.93 6.57 9.77 16.84 14.72 30.52 14.72 14.81 0 25.74-6.04 32.48-17.96 5.1-9.05 7.69-22.54 7.69-40.08 0-19.38-3.26-34.01-9.7-43.48-6.6-9.71-16.86-14.64-30.48-14.64Zm12.52 87.97c-2.78 5.96-6.88 8.85-12.52 8.85s-9.89-3.08-12.82-9.41c-2.78-6.04-4.19-16.05-4.19-29.75s1.51-23.22 4.49-29.54c2.78-5.91 6.88-8.78 12.53-8.78s9.93 3.08 12.82 9.41c2.78 6.04 4.19 15.92 4.19 29.37s-1.51 23.48-4.49 29.86ZM305.23 261.71c-7.47 0-14.04 2.09-19.59 6.22 1.18-5.85 3.26-10.97 6.21-15.27 5.38-7.78 12.84-11.56 22.81-11.56 3.04 0 7.13.65 12.16 1.93l2.26.58 1.94-20.18-1.9-.26c-6.05-.83-10.99-1.25-14.68-1.25-21.8 0-37.34 9.57-46.2 28.44-5.32 11.31-8.01 24.8-8.01 40.1 0 14.47 2.97 25.88 8.82 33.92 6.65 9.09 16.89 13.7 30.44 13.7 12.28 0 22.06-3.88 29.07-11.53 6.5-7.1 9.8-16.63 9.8-28.34 0-10.55-2.6-19.05-7.73-25.26-6.1-7.46-14.64-11.24-25.39-11.24Zm5.69 52.33c-2.82 3.47-6.51 5.16-11.29 5.16s-8.6-1.66-11.6-5.06c-2.93-3.39-4.42-8.29-4.42-14.56 0-5.65 1.56-10.29 4.64-13.78 3.05-3.46 6.93-5.15 11.84-5.15s8.58 1.75 11.37 5.36c2.52 3.25 3.8 7.77 3.8 13.42 0 6.14-1.46 11.06-4.34 14.61Z"/></svg>