<svg xmlns="http://www.w3.org/2000/svg" viewBox="0 0 512 512"><path d="m218.15 198.41 12.44-7.17-1.93 6.52 8.42 2.5 4.75-15.37 10.17-5.74v10.86l-11.48 11.92 6.47 6.04 5.01-5.19V218h9v-15.21l4.6 5.18 6.53-6.04L261 190.01v-11.32l9.19 5.47 4.61 16.09 8.34-2.49-2.18-7.25 12.92 7.44 4.36-7.61-12.33-7.1 6.39-1.53-2.05-8.55-15.42 3.71-9.63-5.54 9.62-5.54 15.43 3.71 2.05-8.54-6.4-1.54 12.33-7.1-4.37-7.61-12.94 7.44 2.15-7.26-8.43-2.48-4.45 16.09-9.19 5.46v-13.01l10.98-11.93-6.23-6.03-4.75 5.18V126h-9v12.17l-5.1-5.18-6.28 6.04L252 150.95v12.56l-10.17-5.75-4.65-15.35-8.47 2.49 1.91 6.51-12.46-7.16-4.39 7.61 12.82 7.38-7.16 1.72 2.06 8.54 16.17-3.89 9.93 5.72-9.94 5.72-16.16-3.89-2.06 8.54 7.15 1.72-12.82 7.37 4.39 7.62z"/><path d="M165.46 448h181.08A36.46 36.46 0 0 0 383 411.54V100.46A36.46 36.46 0 0 0 346.54 64H165.46A36.46 36.46 0 0 0 129 100.46v311.08A36.46 36.46 0 0 0 165.46 448ZM153 100.15A12.15 12.15 0 0 1 165.15 88h181.7A12.15 12.15 0 0 1 359 100.15v310.7A12.15 12.15 0 0 1 346.85 423h-181.7A12.15 12.15 0 0 1 153 410.85Z"/><path d="M183 262a11 11 0 0 0 11-11v-33a11 11 0 0 0-22 0v33a11 11 0 0 0 11 11Z"/></svg>