<svg xmlns="http://www.w3.org/2000/svg" viewBox="0 0 512 512"><path d="M424 303.62H266v-39.46c0-51.66 31.06-75.16 59.19-75.16a54.59 54.59 0 0 1 40.32 17.84c11.49 12.66 17.94 29.66 18.78 52.12a2.59 2.59 0 0 0 2.59 2.51h17.95a2.61 2.61 0 0 0 2.6-2.68c-1-27.63-9.53-50.59-24.83-67.45a76 76 0 0 0-113.55.07l-.56.61a2.6 2.6 0 0 1-4.49-1.8v-46.58c0-33.38 20.25-48.58 38.26-48.58a35.8 35.8 0 0 1 26 11.57c7.13 7.85 11.29 18.75 12.08 32.41a2.58 2.58 0 0 0 2.62 2.42l14.23-.13a2.61 2.61 0 0 0 2.58-2.76C357.59 98 330.5 75.81 303.44 75.81c-17.42 0-34.85 8.81-45.65 26.1a2.59 2.59 0 0 1-4.38 0c-10.67-17.27-27.91-26.05-45.33-26.05-27.06 0-53.71 22.17-55.89 62.72a2.62 2.62 0 0 0 2.57 2.77l14.24.13a2.6 2.6 0 0 0 2.62-2.44c1.81-30.47 20.31-43.79 37.42-43.79a33.11 33.11 0 0 1 24.9 11.3c8 8.78 12.06 21.54 12.06 37.1v45.92a2.6 2.6 0 0 1-4.53 1.75c-14.91-16.43-34-25.5-55.68-25.5s-41.64 9-56.56 25.44c-15.3 16.86-23.71 39.82-24.66 67.45a2.6 2.6 0 0 0 2.6 2.68h17.94a2.61 2.61 0 0 0 2.61-2.52c1.94-47.51 31-70 58.21-70 15 0 28.95 6.42 39.42 18 12.34 13.6 18.65 33.42 18.65 57.3v39.46H88a12 12 0 0 0-12 12c0 30.9 41 66.21 95.92 85.45-14 10.62-22.11 23.11-22.11 35.31a12 12 0 0 0 12 12h188.38a12 12 0 0 0 12-12c0-12.2-8.06-24.69-22.11-35.31C395 381.83 436 346.52 436 315.62a12 12 0 0 0-12-12Zm-39.54 47.79c-20.72 15.44-48.38 27.65-77.88 34.38a12 12 0 0 0-1.92 22.78c11.78 4.88 20.32 10.62 25.83 15.81h-149c5.51-5.19 14.05-10.93 25.83-15.81a12 12 0 0 0-1.92-22.78c-29.5-6.73-57.16-18.94-77.88-34.38-10.5-7.84-18.67-16.29-23.3-23.79h303.54c-4.63 7.5-12.76 15.95-23.3 23.79Z"/></svg>