<svg xmlns="http://www.w3.org/2000/svg" viewBox="0 0 512 512"><path d="M256 448.13c-2.07 0-4.14-.54-6-1.61L94 356.45c-3.71-2.14-6-6.11-6-10.39V165.93c0-4.29 2.29-8.25 6-10.39l156-90.07c3.71-2.14 8.29-2.14 12 0l156 90.07c3.71 2.14 6 6.11 6 10.39v180.13c0 4.29-2.29 8.25-6 10.39l-156 90.07a12.028 12.028 0 0 1-6 1.61ZM112 339.14l144 83.14 144-83.14V172.86L256 89.72l-144 83.14v166.28Z"/><path d="M256 356c-6.63 0-12-5.37-12-12V168c0-6.63 5.37-12 12-12s12 5.37 12 12v176c0 6.63-5.37 12-12 12ZM332 330c-6.63 0-12-5.37-12-12V194c0-6.63 5.37-12 12-12s12 5.37 12 12v124c0 6.63-5.37 12-12 12ZM180 330c-6.63 0-12-5.37-12-12V194c0-6.63 5.37-12 12-12s12 5.37 12 12v124c0 6.63-5.37 12-12 12Z"/></svg>