<svg xmlns="http://www.w3.org/2000/svg" viewBox="0 0 512 512"><path d="M340 448c-53.28-.01-95.02-40.71-95.02-92.65v-.13c.1-8.82 1.67-17.07 5.25-27.6 1-2.93 1.55-4.42 3.91-10.72 5.96-15.88 8.95-25.59 10.96-41.16.96-7.41 7.37-12.99 14.93-12.99 3.93 0 7.65 1.52 10.48 4.27 4.81 4.67 8.63 8.81 11.69 12.76.97-4.07 1.73-8.41 2.25-12.94.91-7.94 1.17-16.31.75-24.21-.05-1.02-.1-1.9-.15-2.45-.03-.36-.05-.72-.05-1.08v-.11c.05-5.41 2.34-8.84 4.25-10.76 3.44-3.45 8.6-4.9 14.08-3.92.55.1 1.09.23 1.62.41 24.08 7.88 43.17 23.99 55.21 46.59 2.89 5.42 5.32 11.22 7.31 17.48 2.68-4.01 7.28-6.6 12.6-6.6 4.67 0 8.99 2.13 11.86 5.85 15.54 20.13 23.08 42.16 23.08 67.35 0 51.07-42.63 92.62-95.02 92.62Zm-71.03-92.58c.04 38.45 31.22 68.57 71.02 68.58 39.16 0 71.02-30.78 71.02-68.62 0-12.61-2.43-24.21-7.37-35.07-1.41 2.73-3.12 5.4-5.14 8.06l-6.5 8.58a11.981 11.981 0 0 1-12.79 4.31c-4.75-1.32-8.2-5.42-8.71-10.32l-1.12-10.71c-1.58-15.14-4.98-27.46-10.42-37.65-6.98-13.1-17.08-23.3-29.6-30-.08 5.69-.45 11.43-1.08 16.98-1.54 13.5-4.93 25.93-9.8 35.92l-4.39 9.02c-2.11 4.33-6.63 6.97-11.42 6.73-4.81-.25-9.01-3.36-10.65-7.88l-3.43-9.43c-.73-2-1.66-4-3.12-6.28-2.16 8.98-5.02 17.39-8.88 27.68-2.29 6.1-2.77 7.4-3.66 10.02-2.71 7.96-3.9 13.96-3.97 20.06Zm4.81-71.19ZM196.24 200.47c23.77-23.19 49.51-36.34 79.52-41.03 6.86-1.07 12.18 2.38 13.27 8.56 1.1 6.2-2.96 11.46-9.92 12.57-26.04 4.16-48.42 15.5-66.81 34.38-17.2 17.65-27.71 38.79-31.86 63.11-.4 2.36-1.01 4.89-2.28 6.86-2.8 4.34-8.07 5.72-12.68 3.85-4.57-1.85-7.28-6.46-6.52-11.62 3.45-23.61 12.28-45.01 26.73-64.01 3.9-5.13 8.26-9.92 10.57-12.66Z"/><path d="M228.41 228.96c15.05-14.69 32.77-23.81 53.43-27.1 6.79-1.08 12.21 2.47 13.24 8.59 1.03 6.11-2.98 11.31-9.64 12.51-33.83 6.11-56.72 29-62.84 62.85-1.21 6.68-6.39 10.67-12.52 9.64-6.12-1.03-9.66-6.44-8.58-13.25 3.28-20.67 12.43-38.38 26.91-53.24ZM138.84 208.02c-3.15 0-6.44-.72-9.66-2.18-18.59-8.44-53.82-36.78-57.77-39.98-4.06-3.25-6.59-8.19-6.89-13.5-.3-5.49 1.78-10.91 5.73-14.85L138 69.76c3.94-3.94 9.36-6.02 14.85-5.73 5.31.29 10.25 2.82 13.54 6.94l.16.2c3.12 4.07 30.74 40.32 38.83 58.63 3.76 8.51 2.54 17.05-3.27 22.86l-49.95 49.95c-3.57 3.57-8.27 5.4-13.32 5.4Zm-47.89-57.27c11.99 9.46 34.43 26.41 46.62 32.51l45.19-45.19c-5.84-12.09-22.35-35.08-31.63-47.5l-60.18 60.18Zm-4.49-3.58s.03.02.04.04c-.01-.01-.03-.02-.04-.04Z"/></svg>