<svg xmlns="http://www.w3.org/2000/svg" viewBox="0 0 512 512"><path d="M391.56 160.54a12 12 0 0 0-11.9-11.54c-2 0-50.14-.22-81.52 13.43-6.63 2.88-12.79 5.86-18.54 9-15.89-19.82-35.83-34.28-64-46.55-31.37-13.64-79.48-13.44-81.52-13.43A12 12 0 0 0 122.14 123c-.32 9.13-2.71 90.14 11.83 121.63s25.95 44.9 53.12 62.38a106.49 106.49 0 0 0 13 7.1 12 12 0 0 0 11.09-.55 12 12 0 0 0 9.64-10.08c.06-.39 5.72-39 21.66-64.74 15.8-25.56 34.09-40.8 65.25-54.34 18.27-7.95 45-10.38 60.12-11.12.32 28.64-1 79.63-9.89 98.83-12.67 27.45-20.95 37.22-44.32 52.25-13.47 8.67-29.2 12.61-40.29 14.39 1.15-4.83 2.57-10 4.33-15.42 11.17-34.34 28.16-49.9 28.56-50.26A12 12 0 0 0 290.46 255c-.9.78-22.15 19.51-35.62 60.94-10.57 32.48-10.29 57-10.21 60v35.5a12 12 0 0 0 24 0v-36.11a107.59 107.59 0 0 1 .57-11.78c13-1.41 36.81-5.73 57.42-19 27.17-17.48 38.59-30.89 53.12-62.37s12.14-112.5 11.82-121.64Zm-168.62 64.17a211.69 211.69 0 0 0-14.37-21.91 12 12 0 0 0-19 14.6c.14.18 13.92 18.31 20 34.72a247.39 247.39 0 0 0-10 34.39c-23-14.85-31.23-24.68-43.81-51.93-8.86-19.2-10.21-70.19-9.89-98.83 15.14.73 41.8 3.15 60.12 11.12 23.79 10.34 40.07 21.79 53.26 37.58-14.44 10.9-25.97 23.84-36.31 40.26Z"/></svg>