<svg xmlns="http://www.w3.org/2000/svg" viewBox="0 0 512 512"><path d="M406 368H106a42 42 0 0 1-42-42V186a42 42 0 0 1 42-42h300a42 42 0 0 1 42 42v140a42 42 0 0 1-42 42ZM106 168a18 18 0 0 0-18 18v140a18 18 0 0 0 18 18h300a18 18 0 0 0 18-18V186a18 18 0 0 0-18-18Z"/><circle cx="388" cy="210" r="12"/><circle cx="344" cy="210" r="12"/><circle cx="300" cy="210" r="12"/><circle cx="256" cy="210" r="12"/><circle cx="212" cy="210" r="12"/><circle cx="168" cy="210" r="12"/><circle cx="124" cy="210" r="12"/><circle cx="388" cy="255" r="12"/><circle cx="344" cy="255" r="12"/><circle cx="300" cy="255" r="12"/><circle cx="256" cy="255" r="12"/><circle cx="212" cy="255" r="12"/><circle cx="168" cy="255" r="12"/><circle cx="124" cy="255" r="12"/><circle cx="388" cy="300" r="12"/><circle cx="124" cy="300" r="12"/><path d="M344 312H168a12 12 0 0 1 0-24h176a12 12 0 0 1 0 24Z"/></svg>