<svg xmlns="http://www.w3.org/2000/svg" viewBox="0 0 512 512"><path d="M273.3 394a20 20 0 0 1-34.6 0 12 12 0 0 0-20.76 12.05 44 44 0 0 0 76.12 0A12 12 0 0 0 273.3 394ZM100 347.81h312a12 12 0 0 0 7.92-21c-.13-.11-13-11.8-28-42.06a12 12 0 1 0-21.52 10.64 245.28 245.28 0 0 0 16.35 28.44H125.17c14-20.64 33.52-58.16 47.89-120.11l.09-.42c.17-.9 18.38-90.6 82.67-91h.36c21.58.14 40.22 10.24 55.41 30a12 12 0 1 0 19-14.61c-19.46-25.35-44.85-39-73.47-39.4a22.44 22.44 0 0 0-2.32 0c-34.79.52-64.09 20.08-84.8 56.6a198.33 198.33 0 0 0-20.4 53.57c-22.3 96-57.21 128-57.49 128.27a12 12 0 0 0 7.89 21.08Z"/></svg>