<svg xmlns="http://www.w3.org/2000/svg" viewBox="0 0 512 512"><path d="M436 355.8h-73.89l23.51-23.51c4.69-4.69 4.69-12.28 0-16.97-4.69-4.69-12.29-4.69-16.97 0l-44 44c-4.69 4.69-4.69 12.28 0 16.97l44 44c2.34 2.34 5.41 3.51 8.49 3.51s6.14-1.17 8.49-3.51c4.69-4.69 4.69-12.28 0-16.97l-23.51-23.51h73.89c6.63 0 12-5.37 12-12s-5.37-12-12-12Z"/><circle cx="256" cy="309.85" r="12"/><path d="M361.83 267.25c-45.57-28.1-98.49-37.25-149.01-25.78-1.28.29-2.54.6-3.81.92l-48.81-57.52a41.784 41.784 0 0 0 6.41-22.26c0-23.16-18.84-42-42-42s-42 18.84-42 42 18.84 42 42 42c6.28 0 12.23-1.39 17.58-3.87l42 49.5c-40.08 15.55-75.61 43.8-103.95 82.92-6.03 8.13-7.53 19.69-3.85 29.38 3.91 10.55 13.05 17.4 23.36 17.46h188.72c6.63 0 12-5.37 12-12s-5.37-12-12-12H100.05c-.25-.18-.76-.73-1.19-1.89-.83-2.19-.54-5.06.67-6.68l.11-.14c31.46-43.46 72.44-71.96 118.51-82.42 44.35-10.07 90.91-1.97 131.1 22.8 5.64 3.48 13.03 1.72 16.51-3.92 3.48-5.64 1.72-13.03-3.92-16.51ZM106.6 162.6c0-9.92 8.07-18 18-18s18 8.08 18 18-8.07 18-18 18-18-8.08-18-18Z"/></svg>