<svg xmlns="http://www.w3.org/2000/svg" viewBox="0 0 512 512"><path d="M424 276.56V165.94c0-4.29-2.29-8.25-6-10.39L262 65.48a12.017 12.017 0 0 0-12 0L94 155.55c-3.71 2.14-6 6.11-6 10.39v180.13c0 4.29 2.29 8.25 6 10.39l156 90.07c1.86 1.07 3.93 1.61 6 1.61s4.14-.54 6-1.61l30.64-17.69c14.18 12.41 43.9 18.13 73.43 18.13 40.82 0 82-10.93 82-35.33V302.75c0-11.77-9.58-20.4-24.07-26.19ZM192 318c0 6.63-5.37 12-12 12s-12-5.37-12-12V194c0-6.63 5.37-12 12-12s12 5.37 12 12v124Zm76 26c0 6.63-5.37 12-12 12s-12-5.37-12-12V168c0-6.63 5.37-12 12-12s12 5.37 12 12v176Zm52-150c0-6.63 5.37-12 12-12s12 5.37 12 12v50.43c0 6.63-5.37 12-12 12s-12-5.37-12-12V194Zm46.07 97.41c31.45 0 50.86 7.05 56.72 11.33-5.85 4.28-25.27 11.33-56.72 11.33s-50.86-7.05-56.72-11.33c5.85-4.28 25.27-11.33 56.72-11.33Zm58 119.13c-3.56 4.01-23.54 12.42-58 12.42s-54.44-8.42-58-12.42v-27.19c15.57 6.23 36.83 9.17 58 9.17s42.43-2.94 58-9.17v27.19Zm0-54.45c-3.55 4-23.52 12.43-58 12.43s-54.45-8.42-58-12.43V328.9c15.57 6.23 36.83 9.17 58 9.17s42.43-2.94 58-9.17v27.19Z"/></svg>