<svg xmlns="http://www.w3.org/2000/svg" viewBox="0 0 512 512"><path d="M442.29 163.96a12.01 12.01 0 0 0-11.7-.49l-97.14 49.03v-38.32c0-24.66-20.06-44.73-44.73-44.73H108.73c-24.66 0-44.73 20.06-44.73 44.73v163.64c0 24.66 20.06 44.73 44.73 44.73h180c24.66 0 44.73-20.06 44.73-44.73V299.5l97.14 49.03c1.71.86 3.56 1.29 5.41 1.29 2.19 0 4.37-.6 6.29-1.78 3.55-2.18 5.71-6.05 5.71-10.22V174.18c0-4.17-2.16-8.04-5.71-10.22ZM309.45 337.82c0 11.43-9.3 20.73-20.73 20.73H108.73c-11.43 0-20.73-9.3-20.73-20.73V174.18c0-11.43 9.3-20.73 20.73-20.73h180c11.43 0 20.73 9.3 20.73 20.73v163.64ZM424 318.32l-90.55-45.7v-33.23l90.55-45.7v124.64Z"/></svg>