<svg xmlns="http://www.w3.org/2000/svg" viewBox="0 0 512 512"><path d="M374.53 70.9a22.94 22.94 0 0 0-16.59-6.9H154.46c-10.39 0-19.63 6.84-22 16.27a11.62 11.62 0 0 0-.27 1.43l-.19 1.75a11.64 11.64 0 0 0-.09 1.45v335.67c0 15.13 12.93 27.43 28.81 27.43h51.35a12 12 0 0 0 12-12v-57.64c0-3.29 1.86-5.36 5.25-5.84l1.95-.13h49.64c3.75 0 6.12 1.72 6.71 4.85l.11 1.54V436a12 12 0 0 0 12 12h51.37c15.89 0 28.81-12.3 28.81-27.43v-336a18.91 18.91 0 0 0-5.38-13.67Zm-158.6 253.34a8 8 0 0 1-8 8h-16a8 8 0 0 1-8-8v-24a8 8 0 0 1 8-8h16a8 8 0 0 1 8 8Zm0-60a8 8 0 0 1-8 8h-16a8 8 0 0 1-8-8v-24a8 8 0 0 1 8-8h16a8 8 0 0 1 8 8Zm0-60a8 8 0 0 1-8 8h-16a8 8 0 0 1-8-8v-24a8 8 0 0 1 8-8h16a8 8 0 0 1 8 8Zm0-60a8 8 0 0 1-8 8h-16a8 8 0 0 1-8-8v-24a8 8 0 0 1 8-8h16a8 8 0 0 1 8 8Zm56 179.88a8 8 0 0 1-8 8h-16a8 8 0 0 1-8-8v-24a8 8 0 0 1 8-8h16a8 8 0 0 1 8 8Zm0-60a8 8 0 0 1-8 8h-16a8 8 0 0 1-8-8v-24a8 8 0 0 1 8-8h16a8 8 0 0 1 8 8Zm0-60a8 8 0 0 1-8 8h-16a8 8 0 0 1-8-8v-24a8 8 0 0 1 8-8h16a8 8 0 0 1 8 8Zm0-60a8 8 0 0 1-8 8h-16a8 8 0 0 1-8-8v-24a8 8 0 0 1 8-8h16a8 8 0 0 1 8 8Zm56 179.88a8 8 0 0 1-8 8h-16a8 8 0 0 1-8-8v-24a8 8 0 0 1 8-8h16a8 8 0 0 1 8 8Zm0-60a8 8 0 0 1-8 8h-16a8 8 0 0 1-8-8v-24a8 8 0 0 1 8-8h16a8 8 0 0 1 8 8Zm0-60a8 8 0 0 1-8 8h-16a8 8 0 0 1-8-8v-24a8 8 0 0 1 8-8h16a8 8 0 0 1 8 8Zm0-60a8 8 0 0 1-8 8h-16a8 8 0 0 1-8-8v-24a8 8 0 0 1 8-8h16a8 8 0 0 1 8 8Z"/></svg>